<?xml version="1.0" encoding="UTF-8" standalone="no"?>
<svg
   viewBox="0 0 32 32"
   version="1.1"
   id="svg5165"
   sodipodi:docname="com.github.mm4rc69.dynwall2.svg"
   inkscape:version="1.2.1 (9c6d41e410, 2022-07-14)"
   inkscape:export-filename="com.github.mm4rc69.dynwall.svg"
   inkscape:export-xdpi="96"
   inkscape:export-ydpi="96"
   xmlns:inkscape="http://www.inkscape.org/namespaces/inkscape"
   xmlns:sodipodi="http://sodipodi.sourceforge.net/DTD/sodipodi-0.dtd"
   xmlns="http://www.w3.org/2000/svg"
   xmlns:svg="http://www.w3.org/2000/svg"
   xmlns:rdf="http://www.w3.org/1999/02/22-rdf-syntax-ns#"
   xmlns:cc="http://creativecommons.org/ns#"
   xmlns:dc="http://purl.org/dc/elements/1.1/">
  <title
     id="title251">DynWall</title>
  <sodipodi:namedview
     id="namedview5167"
     pagecolor="#ffffff"
     bordercolor="#000000"
     borderopacity="0.25"
     inkscape:showpageshadow="2"
     inkscape:pageopacity="0.0"
     inkscape:pagecheckerboard="0"
     inkscape:deskcolor="#d1d1d1"
     showgrid="false"
     inkscape:zoom="25.15625"
     inkscape:cx="12.024845"
     inkscape:cy="16.039752"
     inkscape:window-width="1920"
     inkscape:window-height="1014"
     inkscape:window-x="0"
     inkscape:window-y="0"
     inkscape:window-maximized="1"
     inkscape:current-layer="svg5165" />
  <defs
     id="defs5142">
    <style
       id="style5140">.cls-1{fill:#30acc2;}.cls-2{fill:#68c7d3;}.cls-3{fill:#d1e6e9;}.cls-4{fill:#a1d8df;}</style>
  </defs>
  <g
     id="Monitor">
    <polygon
       class="cls-1"
       points="13 20 19 20 21 30 11 30 13 20"
       id="polygon5146" />
    <path
       class="cls-2"
       d="M11,29H21a2,2,0,0,1,2,2v0a0,0,0,0,1,0,0H9a0,0,0,0,1,0,0v0A2,2,0,0,1,11,29Z"
       id="path5148" />
    <path
       class="cls-3"
       d="M3,1H29a2,2,0,0,1,2,2V20a0,0,0,0,1,0,0H1a0,0,0,0,1,0,0V3A2,2,0,0,1,3,1Z"
       id="path5150" />
    <path
       class="cls-2"
       d="M1,20H31a0,0,0,0,1,0,0v3a2,2,0,0,1-2,2H3a2,2,0,0,1-2-2V20A0,0,0,0,1,1,20Z"
       id="path5152" />
  </g>
  <path
     sodipodi:type="star"
     style="fill:#68b5d3;fill-opacity:1;stroke:#476c94;stroke-width:0;stroke-dasharray:none;stroke-opacity:1"
     id="path6379-5"
     inkscape:flatsided="false"
     sodipodi:sides="5"
     sodipodi:cx="3.2450311"
     sodipodi:cy="14.777484"
     sodipodi:r1="1.0885019"
     sodipodi:r2="0.54425091"
     sodipodi:arg1="0.29260455"
     sodipodi:arg2="0.92092309"
     inkscape:rounded="0"
     inkscape:randomized="0"
     d="m 4.2872672,15.091459 -0.7129178,0.119336 -0.3058577,0.654938 -0.3337989,-0.641148 -0.7173984,-0.0885 0.5066187,-0.515588 -0.1375187,-0.709634 0.6469065,0.322497 0.632407,-0.350077 -0.1068085,0.714902 z"
     inkscape:transform-center-x="-0.0072497014"
     inkscape:transform-center-y="0.097023659"
     transform="translate(25.078465,-0.11115365)" />
  <path
     sodipodi:type="star"
     style="fill:#68b5d3;fill-opacity:1;stroke:#476c94;stroke-width:0;stroke-dasharray:none;stroke-opacity:1"
     id="path6381-7"
     inkscape:flatsided="false"
     sodipodi:sides="5"
     sodipodi:cx="6.8925467"
     sodipodi:cy="8.8663044"
     sodipodi:r1="2.2420115"
     sodipodi:r2="1.1210057"
     sodipodi:arg1="0.20371161"
     sodipodi:arg2="0.83203014"
     inkscape:rounded="0"
     inkscape:randomized="0"
     d="M 9.0881989,9.3198758 7.6474053,9.6950638 7.1396684,11.094655 6.3376137,9.8403183 4.8496241,9.7899294 5.7947207,8.6395187 5.3828293,7.2087854 6.7689858,7.7521292 8.0024126,6.9182763 7.9140078,8.4044919 Z"
     inkscape:transform-center-x="-0.076364827"
     inkscape:transform-center-y="0.14016128"
     transform="translate(19.0623,0.25580133)" />
  <path
     sodipodi:type="star"
     style="fill:#68b5d3;fill-opacity:1;stroke:#476c94;stroke-width:0;stroke-dasharray:none;stroke-opacity:1"
     id="path6379"
     inkscape:flatsided="false"
     sodipodi:sides="5"
     sodipodi:cx="3.2450311"
     sodipodi:cy="14.777484"
     sodipodi:r1="1.0885019"
     sodipodi:r2="0.54425091"
     sodipodi:arg1="0.29260455"
     sodipodi:arg2="0.92092309"
     inkscape:rounded="0"
     inkscape:randomized="0"
     d="m 4.2872672,15.091459 -0.7129178,0.119336 -0.3058577,0.654938 -0.3337989,-0.641148 -0.7173984,-0.0885 0.5066187,-0.515588 -0.1375187,-0.709634 0.6469065,0.322497 0.632407,-0.350077 -0.1068085,0.714902 z"
     inkscape:transform-center-x="-0.0072497014"
     inkscape:transform-center-y="0.097023659" />
  <path
     sodipodi:type="star"
     style="fill:#68b5d3;fill-opacity:1;stroke:#476c94;stroke-width:0;stroke-dasharray:none;stroke-opacity:1"
     id="path6381"
     inkscape:flatsided="false"
     sodipodi:sides="5"
     sodipodi:cx="6.8925467"
     sodipodi:cy="8.8663044"
     sodipodi:r1="2.2420115"
     sodipodi:r2="1.1210057"
     sodipodi:arg1="0.20371161"
     sodipodi:arg2="0.83203014"
     inkscape:rounded="0"
     inkscape:randomized="0"
     d="M 9.0881989,9.3198758 7.6474053,9.6950638 7.1396684,11.094655 6.3376137,9.8403183 4.8496241,9.7899294 5.7947207,8.6395187 5.3828293,7.2087854 6.7689858,7.7521292 8.0024126,6.9182763 7.9140078,8.4044919 Z"
     inkscape:transform-center-x="-0.076364827"
     inkscape:transform-center-y="0.14016128" />
  <path
     sodipodi:type="star"
     style="fill:#68b5d3;fill-opacity:1;stroke:#476c94;stroke-width:0;stroke-dasharray:none;stroke-opacity:1"
     id="path6383"
     inkscape:flatsided="false"
     sodipodi:sides="5"
     sodipodi:cx="14.55854"
     sodipodi:cy="3.2091615"
     sodipodi:r1="3.5946651"
     sodipodi:r2="1.7973325"
     sodipodi:arg1="0.39083026"
     sodipodi:arg2="1.0191488"
     inkscape:rounded="0"
     inkscape:randomized="0"
     d="M 17.882143,4.5785715 15.500506,4.7398817 14.283204,6.7932662 13.393822,4.5780429 11.064771,4.0548501 12.896739,2.5244565 12.674608,0.14772111 14.696209,1.4171092 16.887976,0.47139869 16.305425,2.7863172 Z"
     inkscape:transform-center-x="0.085083687"
     inkscape:transform-center-y="0.26133215"
     transform="translate(-2.1414597,1.7673913)" />
  <path
     sodipodi:type="star"
     style="fill:#68b5d3;fill-opacity:1;stroke:#476c94;stroke-width:0;stroke-dasharray:none;stroke-opacity:1"
     id="path6383-3"
     inkscape:flatsided="false"
     sodipodi:sides="5"
     sodipodi:cx="14.55854"
     sodipodi:cy="3.2091615"
     sodipodi:r1="3.5946651"
     sodipodi:r2="1.7973325"
     sodipodi:arg1="0.39083026"
     sodipodi:arg2="1.0191488"
     inkscape:rounded="0"
     inkscape:randomized="0"
     d="M 17.882143,4.5785715 15.500506,4.7398817 14.283204,6.7932662 13.393822,4.5780429 11.064771,4.0548501 12.896739,2.5244565 12.674608,0.14772111 14.696209,1.4171092 16.887976,0.47139869 16.305425,2.7863172 Z"
     inkscape:transform-center-x="0.085083687"
     inkscape:transform-center-y="0.26133215"
     transform="translate(5.8638104,2.0819908)" />
  <metadata
     id="metadata6531">
    <rdf:RDF>
      <cc:Work
         rdf:about="">
        <dc:title>DynWall</dc:title>
        <dc:date>03/12/2022</dc:date>
        <dc:creator>
          <cc:Agent>
            <dc:title>Marc Michel</dc:title>
          </cc:Agent>
        </dc:creator>
        <cc:license
           rdf:resource="http://creativecommons.org/publicdomain/zero/1.0/" />
      </cc:Work>
      <cc:License
         rdf:about="http://creativecommons.org/publicdomain/zero/1.0/">
        <cc:permits
           rdf:resource="http://creativecommons.org/ns#Reproduction" />
        <cc:permits
           rdf:resource="http://creativecommons.org/ns#Distribution" />
        <cc:permits
           rdf:resource="http://creativecommons.org/ns#DerivativeWorks" />
      </cc:License>
    </rdf:RDF>
  </metadata>
  <rect
     style="fill:#68b5d3;fill-opacity:1;stroke:#476c94;stroke-width:0;stroke-linejoin:round;stroke-dasharray:none;stroke-opacity:1"
     id="rect6602"
     width="10.927203"
     height="1.3746895"
     x="10.389468"
     y="17.278252"
     transform="matrix(0.99999728,-0.0023305,0,1,0,0)" />
  <rect
     style="fill:#ffffff;fill-opacity:1;stroke:#476c94;stroke-width:0;stroke-linejoin:round;stroke-dasharray:none;stroke-opacity:1"
     id="rect6606"
     width="0.91350931"
     height="0.74503106"
     x="28.516769"
     y="22.266926" />
  <rect
     style="fill:#ffffff;fill-opacity:1;stroke:#476c94;stroke-width:0;stroke-linejoin:round;stroke-dasharray:none;stroke-opacity:1"
     id="rect6608"
     width="0.91350931"
     height="0.74503106"
     x="27.359938"
     y="22.27174" />
  <rect
     style="fill:#68b5d3;fill-opacity:1;stroke:#476c94;stroke-width:0;stroke-linejoin:round;stroke-dasharray:none;stroke-opacity:1"
     id="rect6610"
     width="8.1154127"
     height="1.3746895"
     x="11.761547"
     y="15.638308"
     transform="matrix(0.99999508,-0.00313796,0,1,0,0)" />
  <rect
     style="fill:#68b5d3;fill-opacity:1;stroke:#476c94;stroke-width:0;stroke-linejoin:round;stroke-dasharray:none;stroke-opacity:1"
     id="rect6612"
     width="5.320869"
     height="1.3746895"
     x="13.378102"
     y="13.993067"
     transform="matrix(0.99998855,-0.00478603,0,1,0,0)" />
</svg>
